<?xml version="1.0" encoding="utf-8"?>
<!-- Generator: Adobe Adobe Illustrator 24.2.0, SVG Export Plug-In . SVG Version: 6.00 Build 0)  -->
<svg version="1.1" xmlns="http://www.w3.org/2000/svg" xmlns:xlink="http://www.w3.org/1999/xlink" x="0px" y="0px" width="243px"
	 height="206px" viewBox="0 0 243 206" style="enable-background:new 0 0 243 206;" xml:space="preserve">
<style type="text/css">
	.st0{fill:#FFFFFF;stroke:#0A0909;stroke-width:5;stroke-miterlimit:10;}
	.st1{fill:#E62929;stroke:#0A0909;stroke-width:5;stroke-miterlimit:10;}
	.st2{fill:#E62929;stroke:#0A0909;stroke-width:2;stroke-miterlimit:10;}
	.st3{fill:#801717;}
	.st4{stroke:#0A0909;stroke-width:2;stroke-miterlimit:10;}
	.st5{clip-path:url(#SVGID_2_);fill:#FFFFFF;stroke:#000000;stroke-width:5;stroke-miterlimit:10;}
	.st6{clip-path:url(#SVGID_4_);fill:#FFFFFF;stroke:#000000;stroke-width:5;stroke-miterlimit:10;}
	.st7{fill:#FFFFFF;}
	.st8{clip-path:url(#SVGID_6_);}
	.st9{clip-path:url(#SVGID_8_);}
	.st10{fill:#FFFFFF;stroke:#0A0909;stroke-width:3;stroke-miterlimit:10;}
	.st11{fill:#FF7A7A;}
	.st12{fill:#FF7A7A;stroke:#000000;stroke-miterlimit:10;}
	.st13{clip-path:url(#SVGID_10_);fill:#FFFFFF;stroke:#000000;stroke-miterlimit:10;}
	.st14{clip-path:url(#SVGID_12_);fill:#FFFFFF;stroke:#000000;stroke-miterlimit:10;}
	.st15{stroke:#000000;stroke-miterlimit:10;}
	.st16{fill:none;stroke:#000000;stroke-miterlimit:10;}
	.st17{fill:#FFF7F7;}
</style>
<g id="Calendar">
	<path class="st0" d="M2.5,158.32V67.99c0-20.9,16.94-37.84,37.84-37.84h162.33c20.9,0,37.84,16.94,37.84,37.84v90.33
		c0,20.9-16.94,37.84-37.84,37.84H40.33C19.44,196.15,2.5,179.21,2.5,158.32z"/>
	<g>
		<g>
			<g>
				<path class="st1" d="M240.5,67.99v3.34H2.5v-3.34c0-20.9,16.94-37.84,37.83-37.84h162.33C223.56,30.15,240.5,47.09,240.5,67.99z
					"/>
				<line class="st1" x1="240.5" y1="71.33" x2="2.5" y2="71.33"/>
			</g>
		</g>
	</g>
	<rect x="33.06" y="93.11" class="st2" width="45" height="30"/>
	<rect x="101.06" y="93.11" class="st2" width="45" height="30"/>
	<rect x="167.06" y="93.11" class="st2" width="45" height="30"/>
	<rect x="34.06" y="140.11" class="st2" width="45" height="30"/>
	<rect x="102.06" y="140.83" class="st2" width="45" height="30"/>
	<rect x="168.06" y="140.11" class="st2" width="45" height="30"/>
	<ellipse class="st3" cx="61.03" cy="35.47" rx="11" ry="10.5"/>
	<ellipse class="st3" cx="181.04" cy="35.47" rx="11" ry="10.5"/>
	<path class="st4" d="M51.03,32.47v-15c0-5.52,4.48-10,10-10h0c5.52,0,10,4.48,10,10v15c0,5.52-4.48,10-10,10h0
		C55.51,42.47,51.03,37.99,51.03,32.47z"/>
	<path class="st4" d="M171.04,32.47v-15c0-5.52,4.48-10,10-10h0c5.52,0,10,4.48,10,10v15c0,5.52-4.48,10-10,10h0
		C175.52,42.47,171.04,37.99,171.04,32.47z"/>
</g>
<g id="Husky">
	<g>
		<g>
			<defs>
				<rect id="SVGID_1_" x="67.45" y="83.99" width="31.77" height="51.06"/>
			</defs>
			<clipPath id="SVGID_2_">
				<use xlink:href="#SVGID_1_"  style="overflow:visible;"/>
			</clipPath>
			<path class="st5" d="M76.92,89.8c-9.79-14.28-8.08,21.11-2.18,41.1c2.16,7.33,24.38-11.79,21.77-15.6
				C91.07,107.36,82.74,98.28,76.92,89.8z"/>
		</g>
		<g>
			<defs>
				
					<rect id="SVGID_3_" x="141.47" y="96.81" transform="matrix(0.0758 -0.9971 0.9971 0.0758 41.9631 270.6732)" width="51.06" height="31.77"/>
			</defs>
			<clipPath id="SVGID_4_">
				<use xlink:href="#SVGID_3_"  style="overflow:visible;"/>
			</clipPath>
			<path class="st6" d="M174.89,93.52c10.84-13.49,6.46,21.66-0.94,41.15c-2.71,7.14-23.41-13.61-20.52-17.2
				C159.45,109.96,168.44,101.54,174.89,93.52z"/>
		</g>
	</g>
	<path class="st4" d="M60.61,188.04c0-114.9,126.68-114.23,126.68,0"/>
	<path class="st7" d="M80.67,189.62c-16.84-16.06-12.88-36.7-4.11-42.85c11.11-7.79,17.67,0.34,13.85-5.89
		c-6.99-11.37,0.91-23.04,7.14-25.59c10.17-4.16,24.75-1.66,28.02,19.91c0.14,0.94,4.41-22.28,19.66-21.03
		c11.1,0.91,22.46,19.95,13.68,32.03c-0.02,0.02,4.06-1.82,4.09-1.83c9.21-2.53,15.86,4.84,17.85,16.95
		c1.55,9.41-6.89,27.23-15.21,27.23C149.43,188.55,101.71,189.62,80.67,189.62z"/>
	<g>
		<g>
			<defs>
				<rect id="SVGID_5_" x="101.46" y="131.42" width="13.42" height="14.45"/>
			</defs>
			<clipPath id="SVGID_6_">
				<use xlink:href="#SVGID_5_"  style="overflow:visible;"/>
			</clipPath>
			<g class="st8">
				<ellipse class="st4" cx="108.17" cy="138.65" rx="5.71" ry="6.23"/>
				<ellipse class="st7" cx="110.19" cy="136.44" rx="2.02" ry="2.21"/>
			</g>
		</g>
		<g>
			<defs>
				<rect id="SVGID_7_" x="137.48" y="131.42" width="13.42" height="14.45"/>
			</defs>
			<clipPath id="SVGID_8_">
				<use xlink:href="#SVGID_7_"  style="overflow:visible;"/>
			</clipPath>
			<g class="st9">
				<ellipse class="st4" cx="144.19" cy="138.65" rx="5.71" ry="6.23"/>
				<ellipse class="st7" cx="142.17" cy="136.44" rx="2.02" ry="2.21"/>
			</g>
		</g>
	</g>
	<path class="st10" d="M172.88,193.86c-5.86-4.24-13.19-14.51-8.25-20.36c4.2-4.97,8.11,3.27,7.21,1.48
		c-2.36-4.68,2.03-10.52,6.96-5.07c0.34,0.38,1.12,4.77,1.12,2.43c0-4.47,4.25-5.97,7.54-2.8c2.43,2.35,0.63,7.34,2.05,2.5
		c0.94-3.21,4.82-3.52,5.95-2.79c2.45,1.59,3.44,6.98,1.56,11.02c-2.67,5.72-6.4,10.13-7.68,13.56"/>
	<ellipse class="st11" cx="175.22" cy="173" rx="2.08" ry="2.06"/>
	<ellipse class="st11" cx="183.9" cy="173" rx="2.08" ry="2.06"/>
	<ellipse class="st11" cx="193.62" cy="174.64" rx="2.45" ry="2.26"/>
	<ellipse class="st10" cx="68.76" cy="185.33" rx="15.5" ry="12.33"/>
	<path class="st12" d="M116.06,163.71c0,32.87,19.03,31.27,19.03,0"/>
	<g>
		<g>
			<defs>
				<rect id="SVGID_9_" x="109.84" y="161.34" width="15.73" height="8.58"/>
			</defs>
			<clipPath id="SVGID_10_">
				<use xlink:href="#SVGID_9_"  style="overflow:visible;"/>
			</clipPath>
			<path class="st13" d="M110.33,163.48c1.91,8.86,12.5,7.49,15.59-1.98"/>
		</g>
		<g>
			<defs>
				<rect id="SVGID_11_" x="125.57" y="161.34" width="15.73" height="8.58"/>
			</defs>
			<clipPath id="SVGID_12_">
				<use xlink:href="#SVGID_11_"  style="overflow:visible;"/>
			</clipPath>
			<path class="st14" d="M140.82,163.48c-1.91,8.86-12.5,7.49-15.59-1.98"/>
		</g>
	</g>
	<path class="st15" d="M119.43,155.7c-1.43-5,1.3-5.13,5.72-5.13s7.51,0.56,6.86,3.48c-0.43,1.91-1.68,5.15-3.79,6.36
		c-2.26,1.3-3.31,1.16-5.62-0.07C121.91,159.97,120.27,158.63,119.43,155.7z"/>
	<path class="st16" d="M125.57,179.02c-0.58,3.61-0.48,5.67,0,8.17"/>
	<path class="st17" d="M126.77,112.94c-0.69,2.39-1.07,5.34-1.04,7.53c-0.29,2.04-0.07,7.05,0.34,10.38
		c0.41-3.74,0.54-7.11,0.62-10.5C126.52,117.62,126.57,115.61,126.77,112.94z"/>
	<path class="st11" d="M177.42,180.77l-2.31,2.92c-2.39,3.02-0.24,7.47,3.62,7.47h4.62c3.85,0,6-4.44,3.62-7.47l-2.31-2.92
		C182.81,178.44,179.27,178.44,177.42,180.77z"/>
	<ellipse class="st11" cx="168.06" cy="177.62" rx="2.45" ry="2.55"/>
</g>
</svg>
